<?xml version="1.0" encoding="utf-8"?>
<!-- Generator: Adobe Illustrator 14.0.0, SVG Export Plug-In . SVG Version: 6.00 Build 43363)  -->
<!DOCTYPE svg PUBLIC "-//W3C//DTD SVG 1.1//EN" "http://www.w3.org/Graphics/SVG/1.1/DTD/svg11.dtd">
<svg version="1.1" id="Layer_1" xmlns="http://www.w3.org/2000/svg" xmlns:xlink="http://www.w3.org/1999/xlink" x="0px" y="0px"
	 width="123px" height="123px" viewBox="0 0 123 123" enable-background="new 0 0 123 123" xml:space="preserve">
<g id="XMLID_1_">
	<g>
		<ellipse fill="#29ABE2" cx="61.32" cy="64.736" rx="30.43" ry="27.014"/>
	</g>
	<g>
		<ellipse fill="none" stroke="#000000" stroke-width="2" cx="61.32" cy="64.736" rx="30.43" ry="27.015"/>
	</g>
</g>
<ellipse stroke="#000000" stroke-width="3" cx="51.927" cy="59.865" rx="3.408" ry="6.104"/>
<g>
	<g>
		<path d="M48.287,74.518c-0.985,15.957,20.502,6.208,27.168,0.832c2.089-1.685-1.123-2.255-2.463-1.393
			c-0.017,0.01-0.033,0.021-0.049,0.032c-2.207,1.419,1.091,2.275,2.463,1.393c0.017-0.011,0.033-0.021,0.05-0.032
			c-0.821-0.464-1.643-0.928-2.463-1.393c-2.723,2.196-6.304,3.76-9.479,5.14c-5.718,2.485-11.837,3.021-11.343-4.987
			C52.279,72.342,48.377,73.048,48.287,74.518L48.287,74.518z"/>
	</g>
</g>
<ellipse fill="#29ABE2" stroke="#000000" stroke-width="2" cx="110.944" cy="38.25" rx="8.75" ry="9.072"/>
<ellipse fill="#29ABE2" stroke="#000000" stroke-width="2" cx="110.944" cy="78.25" rx="8.75" ry="9.072"/>
<ellipse fill="#29ABE2" stroke="#000000" stroke-width="2" cx="90.327" cy="110.393" rx="8.75" ry="9.072"/>
<ellipse fill="#29ABE2" stroke="#000000" stroke-width="2" cx="94.443" cy="12.25" rx="8.75" ry="9.072"/>
<path fill="none" stroke="#000000" stroke-width="2" d="M75.073,40.64c-2.482-15.794,2.383-21.841,13.326-21.841"/>
<path fill="none" stroke="#000000" stroke-width="2" d="M88.399,52.067c0,1.067-2.706-18.317,13.795-13.817"/>
<path fill="none" stroke="#000000" stroke-width="2" d="M91.75,64.736c6.404-7.325,17.5-7.055,19.152,4.688"/>
<ellipse stroke="#000000" stroke-width="3" cx="69.927" cy="59.865" rx="3.408" ry="6.104"/>
<path fill="none" stroke="#000000" stroke-width="2" d="M78.099,87.322C97,85.75,94.422,95.062,93.566,102.05"/>
<ellipse fill="#29ABE2" stroke="#000000" stroke-width="2" cx="11.188" cy="38.785" rx="8.75" ry="9.072"/>
<ellipse fill="#29ABE2" stroke="#000000" stroke-width="2" cx="11.188" cy="78.785" rx="8.75" ry="9.072"/>
<ellipse fill="#29ABE2" stroke="#000000" stroke-width="2" cx="31.805" cy="109.928" rx="8.75" ry="9.072"/>
<ellipse fill="#29ABE2" stroke="#000000" stroke-width="2" cx="27.688" cy="12.785" rx="8.75" ry="9.072"/>
<path fill="none" stroke="#000000" stroke-width="2" d="M47.059,41.175c2.482-15.794-2.383-21.841-13.326-21.841"/>
<path fill="none" stroke="#000000" stroke-width="2" d="M33.732,52.603c0,1.067,2.706-18.317-13.795-13.817"/>
<path fill="none" stroke="#000000" stroke-width="2" d="M44.033,86.857c-18.901-1.572-16.323,7.739-15.467,14.728"/>
<path fill="none" stroke="#000000" stroke-width="2" d="M30.902,64.736c-6.404-7.325-17.5-7.055-19.152,4.688"/>
</svg>
